<svg width="117" height="109" viewBox="0 0 117 109" fill="none" xmlns="http://www.w3.org/2000/svg">
<path d="M73.3922 81.5477C70.2061 88.2684 66.5894 97.2758 66.9004 107.331C66.9147 107.766 66.7521 108.192 66.4459 108.507C66.1398 108.823 65.7235 109 65.2834 109H31.6768C31.2318 109 30.8061 108.818 30.4999 108.498C30.1937 108.177 30.0359 107.742 30.0598 107.297C30.1268 106.068 30.1602 98.2422 30.1315 97.582C29.9545 95.396 29.3613 93.9992 28.3758 93.4348C24.9936 94.2097 21.4056 94.8459 17.6264 95.3482C17.6025 95.353 17.5785 95.353 17.5546 95.3578C14.2633 95.64 11.1393 95.7596 9.10623 94.095C6.57554 92.019 7.00124 88.6276 7.25487 86.609C7.41275 85.3605 7.38404 84.9061 7.35055 84.7435C6.46552 83.1219 6.55164 81.3138 6.8291 80.4767C6.84824 80.4145 6.87216 80.3571 6.90086 80.2997C7.1592 79.7639 7.47493 79.2952 7.80502 78.903C7.37925 78.5681 7.00132 78.152 6.72386 77.6162C6.06368 76.3485 6.13543 74.9136 6.96305 72.9859C7.18789 71.8714 7.10657 71.5749 7.00611 71.3644C6.59469 70.5225 5.72876 70.2451 4.35098 69.8528C2.78191 69.4127 0.413856 68.7431 0.055022 65.9879C-0.241585 63.7253 0.710426 62.2808 1.72464 60.7501C1.84902 60.5636 1.97819 60.3674 2.11214 60.1618C5.48481 55.0005 7.21664 51.413 7.26441 49.4851C7.29311 48.3037 6.82428 47.6914 6.11626 46.7681C5.08293 45.4192 3.66211 43.5776 4.31744 39.8035C4.61405 38.0911 5.29814 35.642 6.02049 33.0446C6.90552 29.8732 8.12059 25.5299 7.98195 24.291C7.88627 23.4013 7.52269 22.7365 7.10171 21.9616C6.21667 20.3305 5.11636 18.307 7.40788 14.8917C7.4318 14.8535 7.4605 14.82 7.4892 14.7817C12.9669 7.93183 22.1757 3.03363 33.433 1.00064C44.0055 -0.912723 55.2961 -0.0564928 64.4139 3.34932C65.2511 3.66025 65.6768 4.59298 65.3612 5.43008C65.0502 6.26717 64.1174 6.68806 63.2802 6.37719C54.693 3.1723 44.0244 2.36875 34.0077 4.18158C23.5547 6.07106 15.0532 10.5339 10.0589 16.7479C8.90118 18.4939 9.21213 19.0678 9.94408 20.4216C10.4273 21.3113 11.0252 22.4162 11.1926 23.9374C11.384 25.669 10.542 28.8642 9.13076 33.9155C8.42752 36.4316 7.76732 38.8041 7.4947 40.3539C7.08328 42.7265 7.75304 43.597 8.67156 44.7977C9.50874 45.8835 10.5468 47.2372 10.4895 49.5667C10.4225 52.2071 8.67156 56.0195 4.81575 61.9224C4.68179 62.1281 4.54785 62.3338 4.41868 62.5299C3.49537 63.9314 3.12222 64.5389 3.26097 65.5674C3.32794 66.0792 3.52887 66.261 5.22721 66.7393C6.75329 67.1698 8.83906 67.7582 9.91066 69.9394C10.4943 71.1353 10.413 72.3072 10.0925 73.814C10.0685 73.9241 10.035 74.0293 9.9872 74.1345C9.68582 74.809 9.37007 75.7034 9.59014 76.1196C9.77193 76.4688 10.4512 76.7606 11.2454 77.1002C11.7764 77.3298 12.1448 77.8225 12.2118 78.3965C12.2787 78.9706 12.0348 79.5398 11.5659 79.8841C11.5372 79.908 11.4846 79.9415 11.4224 79.9846C11.145 80.1711 10.3365 80.7212 9.88679 81.5584C9.84374 81.8502 9.8533 82.6155 10.2169 83.2421C10.2408 83.2804 10.2599 83.3234 10.2791 83.3665C10.7001 84.2658 10.6618 85.4281 10.4609 87.0115C10.2217 88.9296 10.0925 90.7233 11.1545 91.5988C12.2405 92.4885 14.8573 92.3498 17.2349 92.1441C26.6928 90.8909 34.8679 88.7527 41.5425 85.7965C42.3605 85.433 43.3125 85.8061 43.6761 86.6192C44.0397 87.4324 43.6666 88.3891 42.8533 88.7527C39.5619 90.2116 35.9262 91.4792 31.9746 92.5412C32.7353 93.7466 33.1993 95.3538 33.3572 97.3485C33.3907 97.8555 33.3763 102.94 33.3333 105.772H63.6492C63.7257 95.7126 67.2994 86.854 70.4663 80.1716C70.849 79.3632 71.8106 79.0236 72.619 79.4015C73.4275 79.7842 73.772 80.7457 73.3893 81.554L73.3922 81.5477ZM116.329 33.0151C116.166 33.5987 115.692 34.0435 115.099 34.1679C113.492 34.498 111.865 36.3826 110.143 38.3725C107.282 41.6826 103.579 45.9685 97.3841 45.9685C96.1308 45.9685 94.7769 45.7916 93.313 45.3945C92.5858 46.4373 91.9304 47.5327 91.3611 48.6807C88.2946 66.4514 72.7703 80.017 54.1367 80.017C48.0802 80.017 42.0572 78.5485 36.718 75.7692C31.5561 73.081 27.0113 69.1682 23.577 64.4517C23.0508 63.7294 23.2087 62.7201 23.9311 62.1939C24.6534 61.6677 25.6629 61.8256 26.1891 62.5479C32.6762 71.4593 43.1241 76.7784 54.1316 76.7784C73.1768 76.7784 88.6715 61.2853 88.6715 42.2424C88.6715 37.8465 87.863 33.594 86.3178 29.643H86.2125C84.83 29.643 83.5862 29.4947 82.4524 29.2364C84.3181 33.2927 85.294 37.7126 85.294 42.2423C85.294 59.424 71.3154 73.401 54.1318 73.401C36.9482 73.401 22.9696 59.424 22.9696 42.2423C22.9696 25.0607 36.9482 11.0837 54.1318 11.0837C59.6572 11.0837 65.0057 12.533 69.7037 15.2452C68.9335 13.8771 68.125 12.777 67.1444 12.2842C66.6038 12.0116 66.2593 11.4615 66.2546 10.8539C66.2498 10.2464 66.5847 9.69157 67.1205 9.40934C72.8373 6.41017 79.3722 7.03677 84.1706 11.0452C89.0119 15.092 90.8729 21.4873 89.098 27.8681C90.4375 31.1256 91.3129 34.5745 91.6909 38.1428C92.9012 33.9621 95.7381 30.542 99.7422 28.686C105.158 26.1747 111.339 27.2079 115.869 31.3885C116.314 31.7999 116.491 32.4265 116.333 33.0101L116.329 33.0151ZM54.1377 14.3162C50.9085 14.3162 47.8085 14.8663 44.9239 15.8804C45.6797 17.588 46.603 18.669 47.5838 18.9752L47.7225 19.0182C49.5595 19.5874 52.3389 20.4485 53.2384 22.5627C53.5397 23.2706 53.7502 24.4186 53.0279 25.8537C52.8413 26.222 52.8509 26.2842 53.1953 26.9778C54.0181 28.6281 54.597 30.5174 51.8557 33.818C51.7074 33.9949 51.717 34.6933 51.7218 35.2051C51.7409 36.8267 51.7744 39.8546 47.6028 40.7921L47.3971 40.8352C42.4792 41.9162 40.3982 42.8251 39.5466 43.3274C40.0298 43.5522 40.3025 43.4326 40.9196 43.1648C43.1537 42.1889 45.0002 42.3038 47.8228 45.786C48.2486 46.3122 48.6648 46.5657 49.0618 46.5466C49.6167 46.5179 50.3056 45.9869 50.8462 45.1594C50.9706 44.9681 51.1141 44.7385 51.2719 44.4802C52.7119 42.1603 54.8886 38.6588 57.7254 39.6346C59.0937 40.1034 59.8352 40.0412 60.0504 39.8451C60.1269 39.7781 60.4953 39.3524 60.3853 37.6974C60.2992 36.3915 59.9547 34.9135 59.6773 33.7224C59.5529 33.1914 59.4476 32.7322 59.3759 32.34C58.8831 29.6996 60.6101 27.1452 62.5428 25.7819C64.2363 24.5908 66.0303 24.3325 67.3316 25.0931C68.2453 25.6288 69.2786 26.8438 69.0012 29.6038C68.9677 29.9482 68.9677 30.1826 68.982 30.3309C69.2069 30.3118 69.6135 30.24 70.3119 30.0152C71.7901 29.5369 71.905 28.9007 71.0726 25.7532C70.6085 23.9881 70.0153 21.7352 70.9769 19.9604C66.1451 16.3059 60.2659 14.3162 54.1377 14.3162ZM26.2087 42.2421C26.2087 47.9104 27.9069 53.1865 30.8203 57.5967C33.1932 57.3623 34.3604 56.6448 34.5853 56.3291C34.4992 56.1712 34.1165 55.6451 32.6574 54.961L32.5473 54.9084C31.0499 54.2052 28.7872 53.1433 28.2514 51.1725C28.0696 50.4981 28.0218 49.4409 28.8446 48.2547C29.036 47.9772 28.9929 47.585 28.8398 46.6809C28.5624 45.0306 28.1414 42.5289 31.0357 39.8932C31.2797 39.6684 31.5332 39.4436 31.7915 39.214C34.638 36.6692 36.432 34.8276 35.3986 32.6034C35.2312 32.3355 34.9824 32.0437 34.7049 32.0198C34.4227 31.9959 33.8773 32.2016 33.2937 32.8712C33.1694 33.0099 33.0258 33.1869 32.868 33.3783C31.4663 35.0572 29.1412 37.8507 26.7541 36.7553C26.4001 38.5299 26.2087 40.3715 26.2087 42.2515L26.2087 42.2421ZM54.1377 70.168C60.9548 70.168 67.2075 67.7141 72.0585 63.6434C71.0013 61.864 69.6857 60.1467 68.1932 59.898C67.0977 59.7163 65.7725 60.3238 64.2608 61.711C61.4622 64.2797 60.1371 65.0115 58.8263 64.7149C57.592 64.4375 57.1614 63.3755 56.8744 62.6676C56.5012 61.754 56.3481 61.3761 55.1377 61.3761C53.0041 61.3761 52.4635 61.73 52.387 61.7922C52.3439 61.9309 52.3678 62.3232 52.387 62.5863C52.4396 63.4233 52.5161 64.691 51.5594 65.7337C50.6983 66.6713 49.3157 67.1161 47.0672 67.1783C46.651 67.1879 45.7803 67.2118 45.3067 68.7377C48.0814 69.6656 51.0474 70.1679 54.133 70.1679L54.1377 70.168ZM77.5317 26.983C75.9626 25.8158 74.7427 24.3665 73.7332 22.8358C73.8049 23.3715 73.9628 24.0508 74.1972 24.9309C74.8526 27.4231 75.9529 31.5989 71.2981 33.0962C69.8055 33.5793 68.1072 33.9333 66.8634 32.9288C65.5238 31.8477 65.7201 29.92 65.7822 29.2838C65.8731 28.3749 65.7344 27.997 65.6818 27.8918C65.4617 27.8775 64.7489 28.0545 63.9117 28.8198C62.9215 29.7239 62.3857 30.8767 62.5483 31.7472C62.6105 32.0725 62.7109 32.4982 62.821 32.9909C63.4907 35.8561 64.5002 40.1851 62.2134 42.2467C60.9792 43.3613 59.1469 43.5239 56.7693 42.7251C56.2479 42.9164 55.3246 44.0788 54.0138 46.1882C53.8368 46.4705 53.6789 46.7288 53.5402 46.9344C52.4064 48.6613 50.8325 49.6945 49.2156 49.7758C49.1486 49.7806 49.0768 49.7806 49.0051 49.7806C47.9957 49.7806 46.5939 49.417 45.3023 47.8193C44.0824 46.3125 43.4174 45.9586 43.1305 45.8821C42.9343 45.8295 42.7573 45.8869 42.212 46.126C41.2313 46.5565 39.5952 47.2693 37.3371 45.7816C35.8015 44.7675 35.768 43.5669 35.8828 42.9403C36.1602 41.4527 37.6624 39.6637 46.6992 37.6785L46.8906 37.6355C48.5075 37.2719 48.5028 36.7984 48.4884 35.239C48.4741 34.1723 48.4597 32.8426 49.3687 31.7519C50.9904 29.7954 50.7321 29.2789 50.3063 28.4178C49.8997 27.6046 49.2156 26.2366 50.1389 24.3998C50.2298 24.218 50.3255 23.9693 50.2633 23.8258C49.9475 23.0892 47.7183 22.4003 46.7662 22.1038L46.6274 22.0608C44.6804 21.4581 43.1112 19.7934 41.944 17.1244C35.1939 20.4154 29.9602 26.3467 27.5919 33.5701C27.7019 33.6179 27.8167 33.6705 27.9315 33.728C28.6061 33.4457 29.936 31.848 30.3905 31.3027C30.5722 31.0875 30.7301 30.8914 30.8688 30.7335C32.06 29.375 33.567 28.6671 34.9974 28.7915C35.9063 28.8728 37.2076 29.3177 38.2122 30.9871C38.2361 31.0254 38.26 31.0684 38.2792 31.1115C40.5372 35.7274 36.734 39.1333 33.9545 41.6158C33.7058 41.8406 33.4618 42.0559 33.2226 42.2759C31.6295 43.73 31.8017 44.7393 32.0362 46.1408C32.2275 47.284 32.4667 48.7048 31.5099 50.0872C31.3904 50.2594 31.3808 50.3455 31.3808 50.3455C31.4669 50.6755 32.328 51.2304 33.9258 51.9814L34.0358 52.034C37.6095 53.713 38.0447 55.6311 37.7769 56.9417C37.4324 58.635 35.6911 59.9122 33.0312 60.515C35.5858 63.4615 38.7433 65.8628 42.312 67.5418C43.4028 64.4278 45.8521 63.983 46.9859 63.9542C48.6077 63.9112 49.0812 63.6337 49.1626 63.5716C49.2008 63.4281 49.1769 63.0502 49.1578 62.7919C49.1052 61.9404 49.0286 60.6489 50.0189 59.5965C50.9613 58.5968 52.5353 58.1519 55.1377 58.1519C58.3094 58.1519 59.3092 60.1132 59.7782 61.242C60.2087 60.9502 60.9168 60.3953 62.0745 59.3334C64.3564 57.2431 66.5905 56.3629 68.7242 56.7169C71.2214 57.133 73.0249 59.1278 74.4553 61.3807C79.1676 56.3773 82.0617 49.6423 82.0617 42.2422C82.0617 36.7939 80.4927 31.5226 77.5266 26.9831L77.5317 26.983ZM84.8319 26.342C83.0905 22.9936 80.7799 19.9131 77.9526 17.2201C77.3068 16.603 77.2781 15.5794 77.8952 14.9336C78.5123 14.2879 79.536 14.2592 80.1819 14.8762C82.6695 17.244 84.7888 19.8893 86.5159 22.7402C86.4106 19.1478 84.875 15.8377 82.1003 13.5226C78.9572 10.8965 74.8573 10.1264 70.9537 11.3127C72.1544 12.7381 73.0586 14.6036 73.9963 16.5409C76.1921 21.0755 78.4549 25.7536 84.8367 26.342L84.8319 26.342ZM111.689 32.259C108.446 30.2882 104.571 30.0109 101.107 31.6181C98.103 33.01 95.9358 35.5452 94.9216 38.6688C97.3567 36.4397 100.17 34.6172 103.255 33.3018C104.078 32.9526 105.025 33.3353 105.375 34.1533C105.724 34.976 105.341 35.9231 104.523 36.2723C101.107 37.7265 98.0695 39.8886 95.5866 42.572C101.437 43.4952 104.619 39.8216 107.704 36.2483C109.01 34.7368 110.273 33.2778 111.694 32.259L111.689 32.259Z" fill="#EB5B00"/>
</svg>
