<svg width="176" height="109" viewBox="0 0 176 109" fill="none" xmlns="http://www.w3.org/2000/svg">
<path d="M44.7731 58.3955H60.338C62.4838 58.3955 64.2409 56.6462 64.2409 54.4927V50.5898C64.2409 48.4441 62.4915 46.687 60.338 46.687H44.7731C42.6274 46.687 40.8703 48.4363 40.8703 50.5898V54.4927C40.8703 56.6384 42.6196 58.3955 44.7731 58.3955ZM44.7731 50.6129H60.338V54.5157H44.7731V50.6129Z" fill="#EB5B00"/>
<path d="M167.381 35.033H141.009C138.125 31.5267 134.323 29.1009 130.039 27.9658C133.802 25.1202 136.228 20.6187 136.228 15.5651C136.228 6.98963 129.238 0.000220182 120.663 0.000220182C112.087 0.000220182 105.098 6.98963 105.098 15.5651C105.098 20.2844 107.228 24.5216 110.548 27.3671C99.8423 28.5411 91.4845 37.6141 91.4845 48.6456V68.1133C91.4845 71.9153 93.055 75.3748 95.5818 77.8472H83.5232C83.6243 77.4507 83.7021 77.0309 83.7021 76.5722V75.2194C83.7021 73.61 82.9479 72.1718 81.7739 71.2387C82.9479 69.8626 83.7021 68.1133 83.7021 66.1618V42.8154C83.7021 38.5159 80.219 35.0328 75.9195 35.0328H49.5478C46.6634 31.5265 42.8615 29.1007 38.5777 27.9656C42.3406 25.12 44.7664 20.6185 44.7664 15.5649C44.7664 6.98941 37.777 0 29.2015 0C20.626 0 13.6366 6.98941 13.6366 15.5649C13.6366 20.2841 15.7669 24.5213 19.0867 27.3669C8.381 28.5409 0.0232462 37.6139 0.0232462 48.6454V68.1131C0.0232462 71.915 1.59373 75.3746 4.12052 77.847H3.90282C1.75705 77.847 0 79.5963 0 81.7498V89.5324C0 91.6781 1.74931 93.4352 3.90282 93.4352H6.8262V107.049C6.8262 108.121 7.70475 109 8.77765 109L166.409 108.992C167.482 108.992 168.36 108.114 168.36 107.041V93.4274H171.284C173.43 93.4274 175.187 91.6781 175.187 89.5246V81.742C175.187 80.8479 174.868 80.0316 174.347 79.3708C174.868 78.5777 175.187 77.6215 175.187 76.5875V75.2347C175.187 73.6254 174.432 72.1871 173.259 71.2541C174.432 69.8779 175.187 68.1287 175.187 66.1771V42.8307C175.187 38.5312 171.704 35.0482 167.404 35.0482L167.381 35.033ZM109.009 15.5653C109.009 9.12006 114.241 3.87995 120.694 3.87995C127.139 3.87995 132.379 9.1123 132.379 15.5653C132.379 22.0106 127.147 27.2507 120.694 27.2507C114.249 27.2507 109.009 22.0183 109.009 15.5653ZM95.3953 68.1058V48.6381C95.3953 38.9818 103.255 31.1217 112.912 31.1217H124.597C128.679 31.1217 132.52 32.5133 135.583 35.0245H120.694C116.395 35.0245 112.912 38.5075 112.912 42.807V66.1535C112.912 66.8066 113.028 67.4674 113.191 68.1049H109.009C107.936 68.1049 107.057 67.2264 107.057 66.1535V54.4681C107.057 53.3952 106.179 52.5167 105.106 52.5167C104.033 52.5167 103.154 53.3952 103.154 54.4681V66.1535C103.154 69.38 105.782 71.9845 108.985 71.9845H114.039C113.324 72.8631 112.888 73.9748 112.888 75.1877V76.5405C112.888 76.9759 112.966 77.3958 113.067 77.8156H105.106C99.7335 77.8156 95.3719 73.454 95.3719 68.0817L95.3953 68.1058ZM75.9276 38.9038C78.0733 38.9038 79.8304 40.6531 79.8304 42.8066V66.1531C79.8304 68.2988 78.0811 70.0559 75.9276 70.0559L29.2168 70.0637C28.105 70.0637 27.0477 69.605 26.3091 68.7497C25.6716 68.0345 25.314 67.1171 25.314 66.1607V42.8143C25.314 40.6685 27.0633 38.9115 29.2168 38.9115H75.9276V38.9038ZM79.8304 75.2033V76.5561C79.8304 77.2558 79.2551 77.8311 78.5554 77.8311L26.5901 77.8466C25.8904 77.8466 25.3151 77.2869 25.3151 76.5716V75.2188C25.3151 74.5191 25.8904 73.9438 26.5901 73.9438H78.5554C79.2551 73.9438 79.8304 74.5035 79.8304 75.2188V75.2033ZM17.5314 15.5872C17.5314 9.14196 22.7638 3.90184 29.2168 3.90184C35.662 3.90184 40.9021 9.1342 40.9021 15.5872C40.9021 22.0325 35.6698 27.2726 29.2168 27.2726C22.7715 27.2726 17.5314 22.0402 17.5314 15.5872ZM3.91802 68.1277V48.66C3.91802 39.0037 11.7782 31.1436 21.4344 31.1436H33.1198C37.2015 31.1436 41.0423 32.5352 44.1054 35.0464H29.2168C24.9173 35.0464 21.4342 38.5294 21.4342 42.8289V66.1754C21.4342 66.8284 21.5508 67.4893 21.7141 68.1268H17.5312C16.4583 68.1268 15.5798 67.2483 15.5798 66.1754V54.49C15.5798 53.4171 14.7013 52.5386 13.6283 52.5386C12.5554 52.5386 11.6769 53.4171 11.6769 54.49V66.1754C11.6769 69.4019 14.3047 72.0064 17.5079 72.0064H22.5616C21.8463 72.885 21.4109 73.9967 21.4109 75.2096V76.5624C21.4109 76.9978 21.4887 77.4177 21.5897 77.8375H13.6285C8.25619 77.8375 3.8946 73.4759 3.8946 68.1036L3.91802 68.1277ZM164.481 105.104L10.7209 105.112V93.4262H164.457V105.112L164.481 105.104ZM171.292 89.5389L3.91782 89.5467V81.7642H171.26V89.5467L171.292 89.5389ZM171.292 76.6019C171.292 77.3016 170.732 77.8769 170.017 77.8769H118.051C117.352 77.8769 116.776 77.3171 116.776 76.6019V75.2491C116.776 74.5493 117.352 73.974 118.051 73.974H170.017C170.716 73.974 171.292 74.5338 171.292 75.2491V76.6019ZM171.292 66.1915C171.292 68.3373 169.542 70.0943 167.389 70.0943H120.678C119.566 70.0943 118.509 69.6356 117.77 68.7804C117.133 68.0651 116.775 67.1477 116.775 66.1914V42.8449C116.775 40.6992 118.525 38.9421 120.678 38.9421H167.389C169.535 38.9421 171.292 40.6914 171.292 42.8449V66.1915Z" fill="#EB5B00"/>
<path d="M151.816 46.718H136.252C134.106 46.718 132.349 48.4673 132.349 50.6208V54.5237C132.349 56.6694 134.098 58.4265 136.252 58.4265H151.816C153.962 58.4265 155.719 56.6772 155.719 54.5237V50.6208C155.719 48.4751 153.97 46.718 151.816 46.718ZM151.816 54.5006H136.252V50.5978H151.816V54.5006Z" fill="#EB5B00"/>
</svg>
