<svg width="103" height="109" viewBox="0 0 103 109" fill="none" xmlns="http://www.w3.org/2000/svg">
<path d="M101.849 71.075C100.701 69.0936 98.8401 67.6631 96.5995 67.0706C94.3636 66.478 92.0395 66.7789 90.0582 67.927L68.5683 80.3389C67.9387 78.1862 65.9943 75.7188 60.8186 74.2928C52.8005 72.0661 45.6063 69.4782 36.5472 66.0108C30.4039 63.9045 24.6129 63.3396 16.317 67.4135C13.257 68.9134 8.17851 69.9042 1.62379 70.293C0.670133 70.3532 -0.0567186 71.1633 0.00348594 72.117C0.063668 73.0707 0.896967 73.7976 1.82752 73.7374C8.93829 73.3253 14.3176 72.2375 17.841 70.5106C25.086 66.9413 29.9471 67.3904 35.3631 69.2514C44.4553 72.7327 51.7369 75.3483 59.8894 77.6075C63.9401 78.7186 65.7548 80.4963 65.3057 82.8804V82.8943C65.0511 84.2137 64.4354 85.1303 63.3845 85.7599C58.8153 88.4913 47.7835 85.0331 42.4729 83.3665C41.5517 83.0749 40.7554 82.8203 40.1165 82.6397C39.1953 82.3758 38.2417 82.9036 37.9777 83.8249C37.7138 84.7461 38.2416 85.6997 39.1629 85.9637C39.7925 86.1442 40.5656 86.3849 41.4498 86.6673C48.1115 88.7598 59.2635 92.255 65.1666 88.7228C66.8471 87.7182 67.9721 86.2414 68.5183 84.3342L91.8001 70.8995C92.9853 70.2098 94.3741 70.0292 95.7166 70.3903C97.0591 70.7514 98.1702 71.5985 98.8599 72.7837C99.5358 73.9688 99.7164 75.3577 99.3553 76.7002C98.9942 78.0427 98.1471 79.1537 96.9481 79.8342L59.927 101.25C47.604 108.36 41.9699 104.976 34.8449 100.68C28.4239 96.8099 21.1425 92.4212 8.00769 94.9489C7.07718 95.1295 6.46146 96.0369 6.64207 96.9673C6.82261 97.8979 7.72998 98.5136 8.66046 98.333C20.4886 96.0599 26.8866 99.9069 33.067 103.629C37.4557 106.263 41.6915 108.828 47.3123 108.828C51.2426 108.828 55.8489 107.583 61.6547 104.231L98.671 82.8381C100.652 81.6993 102.083 79.8383 102.685 77.6162C103.291 75.3941 102.99 73.0702 101.851 71.0749L101.849 71.075Z" fill="#EB5B00"/>
<path d="M62.4628 46.6366V52.1502C62.4628 53.1038 63.2359 53.8815 64.1941 53.8815H68.5966V58.284C68.5966 59.2377 69.3697 60.0154 70.328 60.0154H75.8416C76.7952 60.0154 77.5729 59.2423 77.5729 58.284V53.8815H81.9385C82.8921 53.8815 83.6698 53.1084 83.6698 52.1502V46.6366C83.6698 45.6829 82.8967 44.9052 81.9385 44.9052H77.5729V40.5397C77.5729 39.586 76.7998 38.8083 75.8416 38.8083H70.328C69.3743 38.8083 68.5966 39.5815 68.5966 40.5397V44.9052H64.1941C63.2358 44.9052 62.4628 45.6784 62.4628 46.6366ZM65.921 48.3633H70.3235C71.2772 48.3633 72.0548 47.5902 72.0548 46.632V42.2664H74.1103V46.632C74.1103 47.5856 74.8834 48.3633 75.8417 48.3633H80.2072V50.4188H75.8417C74.888 50.4188 74.1103 51.1919 74.1103 52.1502V56.5527H72.0548V52.1502C72.0548 51.1965 71.2817 50.4188 70.3235 50.4188H65.921V48.3633Z" fill="#EB5B00"/>
<path d="M26.4361 7.80451C28.8063 13.258 31.0562 18.4243 43.2222 19.0263C44.0092 20.429 44.6619 21.9058 45.1804 23.4288C39.2917 21.253 32.227 21.3594 27.8989 26.4888C25.1906 29.7155 24.149 34.6504 24.9129 40.7838C26.0008 49.6121 30.5979 58.9957 35.593 62.5973C37.2502 63.7824 39.0048 64.375 40.7548 64.375C42.352 64.375 43.9491 63.8935 45.4814 62.9121C46.1944 62.4538 47.0046 62.2084 47.7405 62.1852C48.5877 62.2084 49.3839 62.4491 50.0969 62.8982C53.3237 64.9675 56.8327 64.8564 60.0131 62.5695C60.3279 62.3288 60.652 62.0603 60.9668 61.7732C64.087 64.8194 68.3554 66.7175 73.0587 66.7175C82.6138 66.7175 90.3864 58.9401 90.3864 49.3897C90.3864 39.8346 82.609 32.0619 73.0587 32.0619C72.1513 32.0619 71.2671 32.1453 70.4106 32.2934C69.8921 30.0065 68.9848 28.0621 67.6792 26.4789C63.3739 21.3865 56.3742 21.243 50.4949 23.3818C52.1383 19.1367 55.1382 15.484 59.0686 13.0537C59.8787 12.5583 60.1333 11.4797 59.6241 10.6695C59.1288 9.85938 58.0501 9.60476 57.24 10.114C53.1151 12.6648 49.8746 16.3683 47.8701 20.6968C47.3609 19.4376 46.7591 18.2294 46.0924 17.0581C47.5553 9.88717 45.4026 5.87349 43.287 3.78114C39.5973 0.114591 33.093 -0.945507 25.4366 0.864659C24.9042 0.985021 24.469 1.36001 24.2514 1.85536C24.0339 2.3507 24.0709 2.92938 24.3348 3.40159C25.1681 4.88763 25.8204 6.36482 26.4361 7.80451ZM73.059 35.5342C80.716 35.5342 86.9286 41.7607 86.9286 49.4037C86.9286 57.0467 80.702 63.2733 73.059 63.2733C65.4159 63.2733 59.1895 57.0467 59.1895 49.4037C59.1848 41.7606 65.416 35.5342 73.059 35.5342ZM46.9127 28.0345C46.9127 28.0345 46.9266 28.0345 46.9266 28.0484C47.0377 28.1086 47.1581 28.1595 47.2784 28.1919C47.3155 28.2058 47.3386 28.2058 47.3618 28.2151C47.4821 28.2382 47.6164 28.2614 47.7506 28.2614H47.7645C47.8988 28.2614 48.0284 28.2382 48.1627 28.2151C48.1858 28.2012 48.2228 28.2012 48.246 28.1919C48.3802 28.1549 48.5006 28.1086 48.621 28.0345C53.9171 24.9977 61.2592 24.2616 65.0089 28.7012C65.9765 29.8724 66.6524 31.3723 67.0412 33.1639C60.4397 35.6175 55.7223 41.9552 55.7223 49.4037C55.7223 53.0193 56.8333 56.371 58.7314 59.1487C58.4768 59.3802 58.2129 59.607 57.9676 59.7875C55.9584 61.2272 53.9909 61.3013 51.9448 59.9912C50.6994 59.2042 49.2736 58.7691 47.7227 58.732C46.283 58.7691 44.8571 59.2042 43.6118 59.9912C41.5795 61.2968 39.6073 61.2227 37.6028 59.7968C33.4548 56.797 29.293 48.0798 28.3393 40.3631C27.7097 35.2845 28.4967 31.146 30.5384 28.7155C34.3113 24.262 41.6264 24.9977 46.9127 28.0345ZM40.8436 6.24358C42.4175 7.80368 43.1675 10.0166 43.1166 12.8359C41.3251 10.7063 39.2326 8.80832 36.8762 7.26208C36.08 6.7297 35.0152 6.96116 34.4828 7.75743C33.9643 8.55369 34.1819 9.61844 34.9782 10.1508C37.168 11.5905 39.103 13.3543 40.7233 15.3496C33.0802 14.4052 31.6311 11.1183 29.5989 6.42416C29.2239 5.56771 28.8489 4.6928 28.4138 3.78997C33.8394 2.9289 38.3857 3.79927 40.8436 6.24358Z" fill="#EB5B00"/>
</svg>
