<svg width="267" height="161" viewBox="0 0 267 161" fill="none" xmlns="http://www.w3.org/2000/svg">
<path d="M252.517 134.235H267V139.201H257.486V143.808H265.855V148.775H257.486V154.821H267V159.752H252.517V134.235Z" fill="white"/>
<path d="M239.364 154.79C240.41 154.79 241.435 154.526 242.437 153.998C243.44 153.47 244.453 152.583 245.478 151.335L248.681 154.682C247.396 156.506 245.924 157.885 244.268 158.821C242.633 159.757 240.944 160.224 239.2 160.224C237.631 160.224 236.16 159.877 234.787 159.181C233.414 158.461 232.215 157.501 231.191 156.302C230.188 155.102 229.393 153.71 228.804 152.127C228.237 150.519 227.954 148.816 227.954 147.016C227.954 145.217 228.248 143.525 228.837 141.942C229.447 140.358 230.264 138.966 231.289 137.767C232.313 136.567 233.523 135.619 234.918 134.924C236.313 134.228 237.795 133.88 239.364 133.88C240.824 133.88 242.208 134.18 243.516 134.78C244.845 135.379 246.142 136.375 247.406 137.767L244.529 141.618C243.614 140.682 242.742 140.058 241.914 139.746C241.108 139.41 240.258 139.242 239.364 139.242C238.47 139.242 237.62 139.446 236.814 139.854C236.029 140.262 235.343 140.814 234.754 141.51C234.166 142.206 233.697 143.033 233.348 143.993C233.022 144.929 232.858 145.937 232.858 147.016C232.858 148.096 233.022 149.104 233.348 150.039C233.697 150.975 234.166 151.803 234.754 152.523C235.343 153.218 236.029 153.77 236.814 154.178C237.62 154.586 238.47 154.79 239.364 154.79Z" fill="white"/>
<path d="M219.112 134.235H224.049V159.752H219.341L208.193 143.088V159.752H203.256V134.235H207.898L219.112 151.006V134.235Z" fill="white"/>
<path d="M184.357 134.235H198.84V139.201H189.327V143.808H197.696V148.775H189.327V154.821H198.84V159.752H184.357V134.235Z" fill="white"/>
<path d="M177.246 141.829C177.246 142.645 177.137 143.424 176.919 144.168C176.723 144.888 176.439 145.56 176.069 146.184C175.698 146.783 175.251 147.323 174.728 147.803C174.205 148.259 173.639 148.631 173.028 148.919L180.711 159.752H174.924L167.765 149.459H165.542V159.752H160.572V134.235H170.576C171.492 134.235 172.353 134.439 173.159 134.847C173.987 135.231 174.696 135.77 175.284 136.466C175.894 137.138 176.374 137.942 176.723 138.878C177.071 139.789 177.246 140.773 177.246 141.829ZM169.955 144.492C170.587 144.492 171.132 144.24 171.59 143.736C172.047 143.208 172.276 142.573 172.276 141.829C172.276 141.109 172.047 140.497 171.59 139.993C171.132 139.465 170.587 139.201 169.955 139.201H165.542V144.492H169.955Z" fill="white"/>
<path d="M141.674 134.235H156.157V139.201H146.643V143.808H155.013V148.775H146.643V154.821H156.157V159.752H141.674V134.235Z" fill="white"/>
<path d="M123.891 134.235H138.374V139.201H128.86V143.808H137.23V148.775H128.86V159.752H123.891V134.235Z" fill="white"/>
<path d="M114.558 134.235H119.495V159.752H114.787L103.639 143.088V159.752H98.7021V134.235H103.345L114.558 151.006V134.235Z" fill="white"/>
<path d="M83.3478 133.88C84.9171 133.88 86.3992 134.228 87.7941 134.924C89.189 135.619 90.3986 136.567 91.423 137.767C92.4692 138.966 93.2865 140.358 93.875 141.942C94.4852 143.525 94.7904 145.217 94.7904 147.016C94.7904 148.792 94.4852 150.483 93.875 152.091C93.2865 153.698 92.4692 155.102 91.423 156.302C90.3986 157.501 89.189 158.461 87.7941 159.181C86.3992 159.877 84.9171 160.224 83.3478 160.224C81.7786 160.224 80.2965 159.877 78.9016 159.181C77.5067 158.461 76.297 157.501 75.2727 156.302C74.2483 155.102 73.431 153.698 72.8207 152.091C72.2322 150.483 71.938 148.792 71.938 147.016C71.938 145.217 72.2322 143.525 72.8207 141.942C73.431 140.358 74.2483 138.966 75.2727 137.767C76.297 136.567 77.5067 135.619 78.9016 134.924C80.2965 134.228 81.7786 133.88 83.3478 133.88ZM83.3478 154.79C84.2414 154.79 85.0806 154.586 85.8652 154.178C86.6498 153.77 87.3364 153.218 87.9248 152.523C88.5133 151.803 88.971 150.975 89.2979 150.039C89.6467 149.104 89.821 148.096 89.821 147.016C89.821 145.937 89.6467 144.929 89.2979 143.993C88.971 143.033 88.5133 142.206 87.9248 141.51C87.3364 140.79 86.6498 140.226 85.8652 139.818C85.0806 139.41 84.2414 139.206 83.3478 139.206C82.4542 139.206 81.6151 139.41 80.8305 139.818C80.0458 140.226 79.3593 140.79 78.7708 141.51C78.1823 142.206 77.7137 143.033 77.365 143.993C77.0381 144.929 76.8746 145.937 76.8746 147.016C76.8746 148.096 77.0381 149.104 77.365 150.039C77.7137 150.975 78.1823 151.803 78.7708 152.523C79.3593 153.218 80.0458 153.77 80.8305 154.178C81.6151 154.586 82.4542 154.79 83.3478 154.79Z" fill="white"/>
<path d="M59.2756 154.79C60.3217 154.79 61.3461 154.526 62.3487 153.998C63.3513 153.47 64.3648 152.583 65.3892 151.335L68.5931 154.682C67.3071 156.506 65.836 157.885 64.1795 158.821C62.5449 159.757 60.8557 160.224 59.1121 160.224C57.5428 160.224 56.0717 159.877 54.6986 159.181C53.3254 158.461 52.1267 157.501 51.1023 156.302C50.0997 155.102 49.3042 153.71 48.7157 152.127C48.1491 150.519 47.8657 148.816 47.8657 147.016C47.8657 145.217 48.16 143.525 48.7484 141.942C49.3587 140.358 50.176 138.966 51.2004 137.767C52.2248 136.567 53.4344 135.619 54.8293 134.924C56.2242 134.228 57.7063 133.88 59.2756 133.88C60.7359 133.88 62.1199 134.18 63.4276 134.78C64.7571 135.379 66.0539 136.375 67.318 137.767L64.4411 141.618C63.5257 140.682 62.6538 140.058 61.8256 139.746C61.0192 139.41 60.1692 139.242 59.2756 139.242C58.382 139.242 57.5319 139.446 56.7255 139.854C55.9409 140.262 55.2543 140.814 54.6659 141.51C54.0774 142.206 53.6088 143.033 53.2601 143.993C52.9331 144.929 52.7697 145.937 52.7697 147.016C52.7697 148.096 52.9331 149.104 53.2601 150.039C53.6088 150.975 54.0774 151.803 54.6659 152.523C55.2543 153.218 55.9409 153.77 56.7255 154.178C57.5319 154.586 58.382 154.79 59.2756 154.79Z" fill="white"/>
<path d="M39.0231 134.235H43.9597V159.752H39.2519L28.1036 143.088V159.752H23.167V134.235H27.8094L39.0231 151.006V134.235Z" fill="white"/>
<path d="M14.0575 134.235H18.9942V150.538C18.9942 151.81 18.7544 153.034 18.2749 154.209C17.7954 155.385 17.1416 156.417 16.3133 157.304C15.4851 158.192 14.5152 158.9 13.4037 159.428C12.3139 159.956 11.137 160.22 9.87282 160.22C8.63049 160.22 7.45354 159.956 6.34198 159.428C5.23042 158.9 4.26053 158.192 3.43231 157.304C2.62588 156.417 1.98292 155.385 1.50342 154.209C1.02393 153.034 0.78418 151.81 0.78418 150.538V134.235H5.72082V149.459C5.72082 150.178 5.82979 150.862 6.04775 151.51C6.2657 152.134 6.55994 152.698 6.93046 153.202C7.30098 153.681 7.73688 154.065 8.23817 154.353C8.76126 154.641 9.30614 154.785 9.87282 154.785C10.4613 154.785 11.0062 154.641 11.5075 154.353C12.0088 154.065 12.4447 153.681 12.8152 153.202C13.2075 152.698 13.5126 152.134 13.7306 151.51C13.9485 150.862 14.0575 150.178 14.0575 149.459V134.235Z" fill="white"/>
<path d="M256.117 66.7861H266.745V117.655H256.61L232.609 84.436V117.655H221.98V66.7861H231.975L256.117 100.22V66.7861Z" fill="white"/>
<path d="M211.242 81.9248C211.242 83.5511 211 85.1056 210.516 86.5884C210.08 88.0234 209.45 89.3627 208.626 90.6063C207.803 91.8021 206.809 92.8783 205.647 93.8349C204.484 94.7437 203.224 95.4851 201.868 96.0591L218.945 117.655H206.083L190.168 97.1353H185.226V117.655H174.181V66.7861H196.418C198.452 66.7861 200.366 67.1927 202.159 68.0058C204 68.7711 205.574 69.8474 206.882 71.2345C208.239 72.5738 209.304 74.1761 210.08 76.0415C210.855 77.8591 211.242 79.8203 211.242 81.9248ZM195.037 87.2341C196.442 87.2341 197.653 86.7319 198.67 85.7275C199.688 84.6752 200.196 83.4076 200.196 81.9248C200.196 80.4899 199.688 79.2702 198.67 78.2657C197.653 77.2134 196.442 76.6873 195.037 76.6873H185.226V87.2341H195.037Z" fill="white"/>
<path d="M156.443 67.5171H167.259V99.2885C167.259 101.767 166.734 104.151 165.683 106.442C164.633 108.733 163.2 110.744 161.385 112.474C159.571 114.204 157.446 115.583 155.011 116.612C152.623 117.641 150.044 118.155 147.275 118.155C144.553 118.155 141.974 117.641 139.539 116.612C137.104 115.583 134.979 114.204 133.164 112.474C131.397 110.744 129.989 108.733 128.938 106.442C127.888 104.151 127.362 101.767 127.362 99.2885V67.5171H138.178V97.1845C138.178 98.5872 138.417 99.9198 138.894 101.182C139.372 102.398 140.017 103.497 140.828 104.479C141.64 105.414 142.595 106.162 143.693 106.723C144.839 107.284 146.033 107.565 147.275 107.565C148.564 107.565 149.758 107.284 150.856 106.723C151.954 106.162 152.909 105.414 153.721 104.479C154.581 103.497 155.249 102.398 155.727 101.182C156.204 99.9198 156.443 98.5872 156.443 97.1845V67.5171Z" fill="white"/>
<path d="M84.6514 66.7861H121.277V76.6873H108.355V117.655H97.5739V76.6873H84.6514V66.7861Z" fill="white"/>
<path d="M47.5688 66.7861H80.4375V76.7823H58.8466V86.0541H77.8406V96.0503H58.8466V108.22H80.4375V118.143H47.5688V66.7861Z" fill="white"/>
<path d="M37.4261 82.0737C37.4261 83.716 37.1815 85.2858 36.6923 86.7832C36.252 88.2322 35.616 89.5847 34.7843 90.8405C33.9526 92.0481 32.9497 93.1349 31.7755 94.1009C30.6014 95.0187 29.3294 95.7674 27.9595 96.347L45.2049 118.155H32.2158L16.1446 97.4338H11.1545V118.155H0V66.7861H22.4557C24.5104 66.7861 26.4429 67.1967 28.2531 68.0178C30.1121 68.7907 31.7021 69.8775 33.0231 71.2782C34.3929 72.6307 35.4692 74.2488 36.252 76.1326C37.0348 77.968 37.4261 79.9484 37.4261 82.0737ZM21.0614 87.4352C22.4801 87.4352 23.7032 86.9281 24.7306 85.9137C25.758 84.8511 26.2717 83.5711 26.2717 82.0737C26.2717 80.6247 25.758 79.393 24.7306 78.3786C23.7032 77.316 22.4801 76.7847 21.0614 76.7847H11.1545V87.4352H21.0614Z" fill="white"/>
<path d="M254.89 42.0911L231.707 42.0911V52.1724L267 52.1724V0L254.89 0V42.0911Z" fill="white"/>
<path d="M213.547 0H225.569V52.1724H214.104L186.954 18.1021V52.1724H174.931V0H186.237L213.547 34.291V0Z" fill="white"/>
<path d="M165.211 15.5266C165.211 17.1946 164.954 18.7889 164.439 20.3097C163.975 21.7814 163.306 23.155 162.431 24.4305C161.556 25.657 160.5 26.7607 159.265 27.7419C158.029 28.674 156.691 29.4344 155.249 30.0231L173.397 52.1724H159.728L142.817 31.1268H137.565V52.1724H125.828V0H149.458C151.62 0 153.653 0.416987 155.558 1.25096C157.515 2.03588 159.188 3.13967 160.578 4.56233C162.019 5.93593 163.152 7.57935 163.975 9.49258C164.799 11.3568 165.211 13.3681 165.211 15.5266ZM147.99 20.972C149.483 20.972 150.77 20.4569 151.852 19.4267C152.933 18.3474 153.473 17.0474 153.473 15.5266C153.473 14.0549 152.933 12.804 151.852 11.7737C150.77 10.6945 149.483 10.1549 147.99 10.1549H137.565V20.972H147.99Z" fill="white"/>
<path d="M85.9312 0H118.155V10.1549H96.9877V19.5739H115.609V29.7287H96.9877V42.0911H118.155V52.1724H85.9312V0Z" fill="white"/>
<path d="M39.8965 0H81.3275V10.1549H66.7096V52.1724H54.5145V10.1549H39.8965V0Z" fill="white"/>
<path d="M0 0H35.2931V10.1549H12.1096V19.5739H32.5047V29.7287H12.1096V42.0911H35.2931V52.1724H0V0Z" fill="white"/>
</svg>
