<svg width="109" height="109" viewBox="0 0 109 109" fill="none" xmlns="http://www.w3.org/2000/svg">
<path d="M47.3193 92.5575C46.3001 92.5575 45.6158 93.237 45.4484 94.0888C45.2761 94.9405 46.1279 95.7922 46.9796 95.9597C55.4875 96.6392 58.8898 93.5767 59.7415 92.725C59.9138 92.5527 61.1005 92.0455 63.8232 92.8973C68.4169 94.2562 71.3071 93.4093 71.6515 93.4093C75.226 92.5575 76.073 93.237 76.073 93.237C72.1588 96.1272 61.7799 99.3619 53.7844 101.405C53.2724 101.577 52.9327 101.577 52.9327 101.577L35.0699 104.3C34.2182 104.472 33.5387 105.319 33.711 106.171C33.8832 107.023 34.5627 107.53 35.4144 107.53H35.7542L53.6169 104.807C53.6169 104.807 53.9566 104.807 54.2964 104.635C54.8084 104.807 54.9758 104.807 55.1481 104.807L73.0108 107.702C73.5228 107.702 80.1549 108.894 87.4718 108.894C93.4245 108.894 99.8943 108.214 103.296 105.492C105 104.3 106.019 102.601 106.186 100.726C106.526 98.1754 105.335 95.62 102.784 93.4093C103.296 93.4093 103.803 93.237 104.143 93.237C104.483 93.237 104.655 93.0648 104.823 93.0648C107.033 92.3853 108.565 90.5144 108.904 88.2989C109.077 86.2556 108.732 81.4944 100.736 79.791C92.2282 78.0875 86.9551 67.3684 88.9983 56.4832C91.5487 43.894 82.0217 39.6397 82.0217 39.6397C81.1699 39.2999 80.1508 39.6397 79.8109 40.4914C79.4712 41.3432 79.8109 42.3623 80.6627 42.7021C81.0024 42.8744 87.6393 45.9368 85.7684 55.8034C83.218 68.5652 89.8501 80.9829 100.062 83.1928C103.976 84.0445 105.674 85.5757 105.507 88.1262C105.507 88.9779 104.827 89.6574 103.804 89.9971H103.631C100.229 90.6766 96.4871 89.4851 93.9318 88.4658H93.7596C90.8693 87.2743 88.8262 85.7431 88.8262 85.7431C88.8262 85.7431 88.6539 85.7431 88.6539 85.5708C88.4817 85.5708 76.9161 78.9338 76.2314 58.348C76.2314 57.4962 75.7194 56.8168 74.8724 56.8168C74.1929 56.6445 73.3411 56.989 73.0014 57.6685C72.8292 58.0082 68.9198 66.1764 69.7667 75.0241C69.939 75.8758 70.6185 76.7275 71.6377 76.5553C72.4894 76.3831 73.3411 75.7036 73.1689 74.6844C72.8292 71.9616 73.1689 69.0715 73.6809 66.6885C75.3844 75.5362 79.1263 81.321 82.1888 84.5513C80.8298 84.2115 79.8058 83.8718 78.7866 83.6995C77.4276 83.3598 76.2362 82.6803 75.3845 81.8286C74.705 81.1491 73.681 80.9769 73.0015 81.6564C72.322 82.3358 72.1498 83.3598 72.8293 84.0393C74.0208 85.5705 75.8917 86.5897 77.935 87.1018C80.9975 87.7813 86.7827 89.3125 92.2281 91.5232H92.4004C99.377 94.4135 102.947 97.6482 102.607 100.538C102.435 101.558 101.927 102.242 101.076 103.089C95.6303 107.17 79.2992 105.639 73.5136 104.62L62.1155 102.917C68.2404 101.046 75.8965 98.3229 79.1317 95.6001C79.4715 95.4278 79.6437 95.0881 79.6437 94.7484C79.6437 94.5761 80.1557 92.5376 78.6245 91.0064C77.0933 89.4752 74.7103 89.3029 70.7961 90.1547C70.7961 90.1547 68.4132 90.8341 64.8434 89.8149C59.91 88.4559 57.8668 90.1547 57.3595 90.6667C57.3595 90.3461 54.9765 93.0687 47.3204 92.5568L47.3193 92.5575Z" fill="#EB5B00"/>
<path d="M3.7649 92.9032C4.10464 93.0755 4.27691 93.0755 4.44439 93.0755C4.95639 93.2477 5.46361 93.2477 5.97562 93.2477C3.4252 95.6307 2.23366 98.0137 2.57347 100.564C3.25295 107.192 11.9331 108.895 21.121 108.895C23.6714 108.895 26.3941 108.723 28.9493 108.555C29.9686 108.555 30.6528 107.704 30.4806 106.684C30.3083 105.665 29.6288 104.981 28.6097 105.153C14.8286 106.345 6.49256 104.474 5.98052 100.387C5.64078 97.497 9.21521 94.2623 16.0196 91.3721H16.1919H16.3641C21.6373 89.1614 27.5948 87.6301 30.6573 86.9506C33.38 86.2712 35.5906 84.7399 36.7822 82.357C42.3951 71.4661 36.1027 58.03 35.763 57.5179C35.4232 56.8385 34.5715 56.3265 33.892 56.6662C33.0403 56.8385 32.533 57.5179 32.533 58.3697C33.2125 77.0837 20.6229 85.0804 19.9439 85.5925C19.9439 85.5925 17.9006 87.1237 15.0105 88.3153H14.8382C12.2878 89.3345 8.54108 90.526 5.1388 89.8465H4.96655C3.94732 89.5068 3.43532 88.8273 3.26308 87.9756C2.92335 85.5926 4.79431 83.8939 8.70851 83.2097C13.9817 82.1904 18.5754 78.1039 21.2977 72.3188C21.6374 71.4671 21.2977 70.4479 20.4459 70.1081C19.5942 69.7683 18.575 70.1081 18.2352 70.9598C16.0245 75.7257 12.45 78.9557 8.19608 79.8075C0.200244 81.511 -0.139567 86.2721 0.0278884 88.3154C0.0231024 90.3491 1.72163 92.2189 3.7649 92.9032ZM35.0694 67.3794C35.7489 71.4611 35.7489 76.3946 33.5381 80.8212C32.8587 82.1802 31.4949 83.2042 29.624 83.544C28.7722 83.7162 27.5807 84.056 26.2218 84.3957C29.624 80.9936 33.5381 75.548 35.0694 67.3794Z" fill="#EB5B00"/>
<path d="M20.0965 62.7856C20.0965 63.8049 20.776 64.4891 21.6277 64.6566H21.8C22.6517 64.6566 23.5034 63.9771 23.5034 63.1253C23.6757 60.5749 23.5034 58.192 22.9914 55.6414C21.1205 46.2818 27.2454 43.0523 27.9248 42.7117C45.4482 37.2663 48.5107 33.1846 48.85 32.5051C49.0222 32.1654 49.0222 31.9931 49.0222 31.6534V27.2319V27.0597V26.7199C49.0222 26.5477 49.0222 26.5477 48.85 26.3802C48.85 26.2079 48.6777 26.2079 48.6777 26.0405C48.6777 25.8682 48.5054 25.8682 48.5054 25.8682C48.5054 25.8682 48.5054 25.696 48.3332 25.696C46.6297 24.6767 45.2707 23.1455 44.2515 21.2745C43.7395 20.4227 42.7203 20.083 41.8686 20.595C41.0168 21.107 40.6771 22.1262 41.1891 22.978C42.2083 25.0212 43.9119 26.7199 45.6105 28.0837V30.9739C44.5913 31.9932 40.5048 35.2279 26.7237 39.4818H26.5515C26.3792 39.4818 17.0244 43.7358 19.5748 56.3254C20.0964 58.3638 20.2687 60.575 20.0965 62.7856Z" fill="#EB5B00"/>
<path d="M41.1944 17.188C42.2136 17.188 42.8979 16.5085 42.8979 15.4845C42.8979 8.84757 48.0036 3.40693 54.296 3.40693C55.3152 3.40693 55.9995 2.72744 55.9995 1.70346C55.9995 0.68424 55.32 0 54.296 0C46.1278 0 39.4957 6.97665 39.4957 15.485C39.4957 16.3416 40.1752 17.188 41.1944 17.188Z" fill="#EB5B00"/>
<path d="M59.5692 4.77078C63.3111 6.81405 65.6941 10.8957 65.6941 15.4894C65.6941 19.7434 63.6508 23.6576 60.0812 25.696L59.9089 25.8682C59.7367 25.8682 59.7367 26.0405 59.7367 26.0405C59.7367 26.0405 59.5644 26.2127 59.5644 26.3802C59.5644 26.5525 59.3922 26.5525 59.3922 26.72V27.0597V27.2319V31.6534C59.3922 31.9931 59.3922 32.1654 59.5644 32.5052C59.9042 33.0172 62.1149 36.2471 74.3647 40.6733C74.537 40.6733 74.7044 40.8456 74.8767 40.8456C75.5562 40.8456 76.2357 40.3336 76.4079 39.6541C76.7477 38.8024 76.2357 37.7832 75.3887 37.4434C66.3736 34.2087 63.4786 31.8305 62.6268 30.9788V28.0885C66.541 25.1983 68.924 20.6046 68.924 15.4994C68.924 9.71414 65.8615 4.60853 60.9281 1.89103C60.4209 1.36945 59.4017 1.70919 58.8896 2.38868C58.5499 3.24042 58.7174 4.25874 59.5692 4.77078Z" fill="#EB5B00"/>
</svg>
