<svg width="144" height="86" viewBox="0 0 144 86" fill="none" xmlns="http://www.w3.org/2000/svg">
<path d="M135.395 71.9746H143.161V74.6376H138.06V77.1076H142.547V79.7706H138.06V83.0126H143.161V85.6563H135.395V71.9746Z" fill="#EB5B00"/>
<path d="M128.343 82.9956C128.904 82.9956 129.453 82.8541 129.991 82.5711C130.528 82.2881 131.072 81.8121 131.621 81.1431L133.339 82.9377C132.649 83.9154 131.86 84.6552 130.972 85.1569C130.096 85.6586 129.19 85.9095 128.255 85.9095C127.414 85.9095 126.625 85.7229 125.889 85.3499C125.152 84.9639 124.51 84.4493 123.96 83.8061C123.423 83.1629 122.996 82.4167 122.681 81.5676C122.377 80.7057 122.225 79.7923 122.225 78.8274C122.225 77.8626 122.383 76.9556 122.698 76.1065C123.026 75.2575 123.464 74.5113 124.013 73.8681C124.562 73.2248 125.211 72.7167 125.959 72.3436C126.707 71.9705 127.501 71.784 128.343 71.784C129.126 71.784 129.868 71.9448 130.569 72.2664C131.282 72.588 131.977 73.1219 132.655 73.8681L131.112 75.9329C130.622 75.4311 130.154 75.0966 129.71 74.9294C129.278 74.7493 128.822 74.6592 128.343 74.6592C127.864 74.6592 127.408 74.7686 126.976 74.9873C126.555 75.206 126.187 75.5019 125.871 75.875C125.556 76.248 125.304 76.6919 125.117 77.2065C124.942 77.7082 124.854 78.2485 124.854 78.8274C124.854 79.4063 124.942 79.9467 125.117 80.4484C125.304 80.9501 125.556 81.394 125.871 81.7799C126.187 82.153 126.555 82.4489 126.976 82.6676C127.408 82.8863 127.864 82.9956 128.343 82.9956Z" fill="#EB5B00"/>
<path d="M117.484 71.9746H120.131V85.6563H117.607L111.629 76.7217V85.6563H108.982V71.9746H111.471L117.484 80.9671V71.9746Z" fill="#EB5B00"/>
<path d="M98.8491 71.9746H106.615V74.6376H101.514V77.1076H106.001V79.7706H101.514V83.0126H106.615V85.6563H98.8491V71.9746Z" fill="#EB5B00"/>
<path d="M95.0361 76.0463C95.0361 76.4837 94.9776 76.9018 94.8608 77.3006C94.7556 77.6865 94.6037 78.0468 94.405 78.3812C94.2064 78.7029 93.9668 78.9923 93.6863 79.2496C93.4058 79.494 93.102 79.6934 92.7748 79.8478L96.8942 85.6563H93.7915L89.9526 80.1373H88.7606V85.6563H86.0961V71.9746H91.4601C91.9509 71.9746 92.4125 72.0839 92.8449 72.3026C93.289 72.5085 93.6688 72.7979 93.9843 73.171C94.3115 73.5312 94.5686 73.9622 94.7556 74.4639C94.9426 74.9528 95.0361 75.4802 95.0361 76.0463ZM91.127 77.4743C91.4659 77.4743 91.7581 77.3392 92.0035 77.069C92.2489 76.786 92.3716 76.4451 92.3716 76.0463C92.3716 75.6603 92.2489 75.3323 92.0035 75.0621C91.7581 74.7791 91.4659 74.6376 91.127 74.6376H88.7606V77.4743H91.127Z" fill="#EB5B00"/>
<path d="M75.963 71.9746H83.7285V74.6376H78.6274V77.1076H83.115V79.7706H78.6274V83.0126H83.7285V85.6563H75.963V71.9746Z" fill="#EB5B00"/>
<path d="M66.4283 71.9746H74.1938V74.6376H69.0928V77.1076H73.5803V79.7706H69.0928V85.6563H66.4283V71.9746Z" fill="#EB5B00"/>
<path d="M61.4241 71.9746H64.0711V85.6563H61.5468L55.5693 76.7217V85.6563H52.9224V71.9746H55.4116L61.4241 80.9671V71.9746Z" fill="#EB5B00"/>
<path d="M44.6898 71.784C45.5312 71.784 46.3259 71.9705 47.0738 72.3436C47.8217 72.7167 48.4703 73.2248 49.0196 73.8681C49.5805 74.5113 50.0187 75.2575 50.3343 76.1065C50.6615 76.9556 50.8251 77.8626 50.8251 78.8274C50.8251 79.7794 50.6615 80.6864 50.3343 81.5483C50.0187 82.4103 49.5805 83.1629 49.0196 83.8061C48.4703 84.4493 47.8217 84.9639 47.0738 85.3499C46.3259 85.7229 45.5312 85.9095 44.6898 85.9095C43.8484 85.9095 43.0537 85.7229 42.3058 85.3499C41.5579 84.9639 40.9093 84.4493 40.36 83.8061C39.8108 83.1629 39.3725 82.4103 39.0453 81.5483C38.7298 80.6864 38.572 79.7794 38.572 78.8274C38.572 77.8626 38.7298 76.9556 39.0453 76.1065C39.3725 75.2575 39.8108 74.5113 40.36 73.8681C40.9093 73.2248 41.5579 72.7167 42.3058 72.3436C43.0537 71.9705 43.8484 71.784 44.6898 71.784ZM44.6898 82.9956C45.1689 82.9956 45.6188 82.8863 46.0396 82.6676C46.4603 82.4489 46.8284 82.153 47.1439 81.7799C47.4594 81.394 47.7048 80.9501 47.8801 80.4484C48.0671 79.9467 48.1606 79.4063 48.1606 78.8274C48.1606 78.2485 48.0671 77.7082 47.8801 77.2065C47.7048 76.6919 47.4594 76.248 47.1439 75.875C46.8284 75.489 46.4603 75.1867 46.0396 74.968C45.6188 74.7493 45.1689 74.6399 44.6898 74.6399C44.2107 74.6399 43.7607 74.7493 43.34 74.968C42.9193 75.1867 42.5512 75.489 42.2357 75.875C41.9201 76.248 41.6689 76.6919 41.4819 77.2065C41.3066 77.7082 41.219 78.2485 41.219 78.8274C41.219 79.4063 41.3066 79.9467 41.4819 80.4484C41.6689 80.9501 41.9201 81.394 42.2357 81.7799C42.5512 82.153 42.9193 82.4489 43.34 82.6676C43.7607 82.8863 44.2107 82.9956 44.6898 82.9956Z" fill="#EB5B00"/>
<path d="M31.7827 82.9956C32.3436 82.9956 32.8929 82.8541 33.4305 82.5711C33.968 82.2881 34.5114 81.8121 35.0607 81.1431L36.7786 82.9377C36.0891 83.9154 35.3003 84.6552 34.4121 85.1569C33.5356 85.6586 32.6299 85.9095 31.695 85.9095C30.8536 85.9095 30.0648 85.7229 29.3286 85.3499C28.5923 84.9639 27.9496 84.4493 27.4003 83.8061C26.8628 83.1629 26.4362 82.4167 26.1207 81.5676C25.8169 80.7057 25.6649 79.7923 25.6649 78.8274C25.6649 77.8626 25.8227 76.9556 26.1382 76.1065C26.4654 75.2575 26.9037 74.5113 27.4529 73.8681C28.0022 73.2248 28.6508 72.7167 29.3987 72.3436C30.1466 71.9705 30.9413 71.784 31.7827 71.784C32.5657 71.784 33.3077 71.9448 34.0089 72.2664C34.7218 72.588 35.4171 73.1219 36.0949 73.8681L34.5523 75.9329C34.0615 75.4311 33.5941 75.0966 33.15 74.9294C32.7176 74.7493 32.2618 74.6592 31.7827 74.6592C31.3036 74.6592 30.8478 74.7686 30.4154 74.9873C29.9947 75.206 29.6266 75.5019 29.311 75.875C28.9955 76.248 28.7443 76.6919 28.5573 77.2065C28.382 77.7082 28.2943 78.2485 28.2943 78.8274C28.2943 79.4063 28.382 79.9467 28.5573 80.4484C28.7443 80.9501 28.9955 81.394 29.311 81.7799C29.6266 82.153 29.9947 82.4489 30.4154 82.6676C30.8478 82.8863 31.3036 82.9956 31.7827 82.9956Z" fill="#EB5B00"/>
<path d="M20.9236 71.9746H23.5705V85.6563H21.0463L15.0687 76.7217V85.6563H12.4218V71.9746H14.911L20.9236 80.9671V71.9746Z" fill="#EB5B00"/>
<path d="M7.53746 71.9746H10.1844V80.7162C10.1844 81.398 10.0559 82.0541 9.79875 82.6845C9.54165 83.3149 9.19107 83.8681 8.74699 84.3441C8.30291 84.8201 7.78287 85.1996 7.18687 85.4826C6.60256 85.7656 5.9715 85.9071 5.2937 85.9071C4.62758 85.9071 3.99652 85.7656 3.40053 85.4826C2.80453 85.1996 2.28449 84.8201 1.84041 84.3441C1.40802 83.8681 1.06327 83.3149 0.806175 82.6845C0.549077 82.0541 0.420528 81.398 0.420528 80.7162V71.9746H3.06747V80.1373C3.06747 80.5232 3.1259 80.8899 3.24276 81.2372C3.35962 81.5717 3.51739 81.874 3.71605 82.1442C3.91472 82.4015 4.14845 82.6073 4.41723 82.7617C4.6977 82.9161 4.98986 82.9933 5.2937 82.9933C5.60923 82.9933 5.90138 82.9161 6.17017 82.7617C6.43895 82.6073 6.67268 82.4015 6.87134 82.1442C7.0817 81.874 7.2453 81.5717 7.36217 81.2372C7.47903 80.8899 7.53746 80.5232 7.53746 80.1373V71.9746Z" fill="#EB5B00"/>
<path d="M137.326 35.8095H143.024V63.0845H137.59L124.721 45.2731V63.0845H119.022V35.8095H124.381L137.326 53.7364V35.8095Z" fill="#EB5B00"/>
<path d="M113.264 43.9266C113.264 44.7986 113.134 45.6321 112.875 46.4271C112.641 47.1965 112.303 47.9146 111.862 48.5815C111.42 49.2226 110.887 49.7997 110.264 50.3126C109.641 50.7999 108.965 51.1974 108.238 51.5052L117.395 63.0845H110.498L101.965 52.0822H99.3151V63.0845H93.3925V35.8095H105.316C106.407 35.8095 107.433 36.0275 108.394 36.4635C109.381 36.8738 110.225 37.4509 110.926 38.1946C111.654 38.9127 112.225 39.7719 112.641 40.7721C113.056 41.7467 113.264 42.7982 113.264 43.9266ZM104.575 46.7734C105.329 46.7734 105.978 46.5041 106.523 45.9655C107.069 45.4013 107.342 44.7217 107.342 43.9266C107.342 43.1572 107.069 42.5032 106.523 41.9647C105.978 41.4004 105.329 41.1183 104.575 41.1183H99.3151V46.7734H104.575Z" fill="#EB5B00"/>
<path d="M83.882 36.2016H89.6812V53.2369C89.6812 54.5656 89.3996 55.8442 88.8363 57.0727C88.273 58.3011 87.5049 59.3791 86.532 60.3067C85.559 61.2344 84.4197 61.9739 83.1139 62.5255C81.8337 63.077 80.4511 63.3528 78.9661 63.3528C77.5067 63.3528 76.1241 63.077 74.8183 62.5255C73.5125 61.9739 72.3732 61.2344 71.4002 60.3067C70.4529 59.3791 69.6976 58.3011 69.1343 57.0727C68.571 55.8442 68.2894 54.5656 68.2894 53.2369V36.2016H74.0886V52.1088C74.0886 52.8609 74.2166 53.5754 74.4727 54.2523C74.7287 54.9041 75.0744 55.4932 75.5096 56.0197C75.9449 56.5211 76.457 56.9223 77.0458 57.2231C77.6603 57.5239 78.3004 57.6744 78.9661 57.6744C79.6574 57.6744 80.2975 57.5239 80.8864 57.2231C81.4753 56.9223 81.9873 56.5211 82.4226 56.0197C82.8835 55.4932 83.2419 54.9041 83.498 54.2523C83.754 53.5754 83.882 52.8609 83.882 52.1088V36.2016Z" fill="#EB5B00"/>
<path d="M45.3885 35.8095H65.0266V41.1183H58.0977V63.0845H52.3173V41.1183H45.3885V35.8095Z" fill="#EB5B00"/>
<path d="M25.5056 35.8095H43.1292V41.1693H31.5526V46.1407H41.7368V51.5005H31.5526V58.0254H43.1292V63.3463H25.5056V35.8095Z" fill="#EB5B00"/>
<path d="M20.0673 44.0064C20.0673 44.887 19.9362 45.7287 19.6739 46.5316C19.4378 47.3085 19.0968 48.0337 18.6508 48.7071C18.2049 49.3545 17.6671 49.9372 17.0376 50.4552C16.408 50.9473 15.726 51.3487 14.9915 51.6595L24.2382 63.3528H17.2737L8.65657 52.2422H5.98093V63.3528H0.000110626V35.8095H12.0405C13.1422 35.8095 14.1783 36.0296 15.1489 36.4699C16.1457 36.8843 16.9982 37.467 17.7065 38.2181C18.441 38.9433 19.0181 39.8109 19.4378 40.8209C19.8575 41.8051 20.0673 42.8669 20.0673 44.0064ZM11.2928 46.8812C12.0536 46.8812 12.7094 46.6093 13.2602 46.0654C13.8111 45.4956 14.0865 44.8093 14.0865 44.0064C14.0865 43.2295 13.8111 42.5691 13.2602 42.0252C12.7094 41.4554 12.0536 41.1705 11.2928 41.1705H5.98093V46.8812H11.2928Z" fill="#EB5B00"/>
<path d="M136.668 22.5685L124.237 22.5685V27.9739L143.161 27.9739V0L136.668 0V22.5685Z" fill="#EB5B00"/>
<path d="M114.5 3.05176e-05H120.946V27.974H114.799L100.241 9.70608V27.974H93.7949V3.05176e-05H99.857L114.5 18.3863V3.05176e-05Z" fill="#EB5B00"/>
<path d="M88.5832 8.32514C88.5832 9.21946 88.4452 10.0743 88.1692 10.8897C87.9207 11.6789 87.5619 12.4154 87.0926 13.0992C86.6234 13.7568 86.0575 14.3487 85.395 14.8747C84.7325 15.3745 84.0148 15.7822 83.2419 16.0979L92.9722 27.974H85.6434L76.5757 16.6897H73.7601V27.974H67.4665V3.05176e-05H80.1365C81.2959 3.05176e-05 82.3862 0.223612 83.4076 0.670774C84.4565 1.09163 85.3536 1.68346 86.0989 2.44627C86.8718 3.18277 87.4791 4.06394 87.9207 5.08979C88.3624 6.08932 88.5832 7.16777 88.5832 8.32514ZM79.3498 11.2448C80.1503 11.2448 80.8404 10.9687 81.4201 10.4163C81.9998 9.8376 82.2896 9.14055 82.2896 8.32514C82.2896 7.53603 81.9998 6.86528 81.4201 6.31291C80.8404 5.73423 80.1503 5.44489 79.3498 5.44489H73.7601V11.2448H79.3498Z" fill="#EB5B00"/>
<path d="M46.0747 3.05176e-05H63.3527V5.44489H52.0031V10.4952H61.9876V15.94H52.0031V22.5686H63.3527V27.974H46.0747V3.05176e-05Z" fill="#EB5B00"/>
<path d="M21.3918 3.05176e-05H43.6064V5.44489H35.7685V27.974H29.2297V5.44489H21.3918V3.05176e-05Z" fill="#EB5B00"/>
<path d="M0 9.15527e-05H18.9235V5.44495H6.49295V10.4952H17.4285V15.9401H6.49295V22.5686H18.9235V27.974H0V9.15527e-05Z" fill="#EB5B00"/>
</svg>
