<svg width="99" height="109" viewBox="0 0 99 109" fill="none" xmlns="http://www.w3.org/2000/svg">
<path d="M73.4866 43.9952C73.4866 43.9952 73.4866 43.9581 73.4866 43.9333C73.499 43.8094 73.5238 43.698 73.5362 43.5741V43.5493C73.5362 43.5493 73.5362 43.5246 73.5362 43.5122C73.6477 42.6328 73.6972 41.7286 73.6972 40.8368C73.6972 35.0277 71.443 29.5778 67.3308 25.478C63.231 21.3782 57.7687 19.1116 51.972 19.1116C46.1753 19.1116 40.8865 21.3287 36.8486 25.2427C32.8107 21.3287 27.3856 19.1116 21.7252 19.1116C16.0648 19.1116 10.4662 21.3658 6.36645 25.478C2.26665 29.5778 0 35.0401 0 40.8368C0 41.7286 0.0495445 42.6204 0.161019 43.5122C0.161019 43.5122 0.161019 43.5369 0.161019 43.5493C0.161019 43.5493 0.161019 43.5741 0.161019 43.5865C0.173405 43.698 0.185791 43.8094 0.210564 43.9209V43.9457V43.9581V44.0076C0.817482 48.1693 2.61346 52.0338 5.40033 55.1922C9.54967 60.6669 15.9904 66.253 24.5492 71.7896C30.9033 75.9018 35.9816 78.379 36.1921 78.4905C36.4027 78.5896 36.6133 78.6391 36.8362 78.6391C37.0592 78.6391 37.2821 78.5896 37.4803 78.4905C37.6909 78.3914 42.7692 75.9018 49.1232 71.7896C57.6696 66.253 64.1104 60.6669 68.2721 55.1922C71.059 52.0338 72.855 48.1693 73.4619 44.0076L73.4866 43.9952ZM65.9683 53.3467C62.0915 58.4869 55.725 63.9864 47.575 69.2628C42.6577 72.4461 38.434 74.6756 36.861 75.4807C35.3004 74.6756 31.0767 72.4584 26.147 69.2628C17.997 63.9864 11.6429 58.4746 7.75369 53.3467C7.72892 53.3219 7.70414 53.2848 7.67937 53.26C5.2517 50.5227 3.69105 47.1661 3.17084 43.5617C3.17084 43.5617 3.17084 43.5617 3.17084 43.5493V43.5122V43.4874C3.15845 43.3883 3.14607 43.3016 3.13368 43.2025C3.13368 43.2025 3.13368 43.1901 3.13368 43.1777C3.03459 42.3974 2.98505 41.6171 2.98505 40.8368C2.98505 30.4944 11.4076 22.0718 21.75 22.0718C27.1008 22.0718 32.2038 24.3633 35.7586 28.364C36.0435 28.6736 36.4399 28.8594 36.861 28.8594C37.2821 28.8594 37.6909 28.6736 37.9634 28.364C41.5182 24.3633 46.6336 22.0718 51.972 22.0718C62.3144 22.0718 70.7369 30.4944 70.7369 40.8368C70.7369 41.6171 70.6874 42.4098 70.5883 43.1777C70.5883 43.1777 70.5883 43.1901 70.5883 43.2025C70.5759 43.3016 70.5635 43.4131 70.5512 43.5122V43.5493C70.5512 43.5493 70.5512 43.5493 70.5512 43.5617C70.0309 47.1661 68.4703 50.5227 66.0426 53.26C66.0178 53.2848 65.9931 53.3219 65.9683 53.3467Z" fill="#EB5B00"/>
<path d="M24.2768 84.089L20.4866 74.6013C20.177 73.8457 19.3223 73.4741 18.5544 73.7714C17.7988 74.0811 17.4273 74.9357 17.7245 75.7036L21.5147 85.1914C21.5642 85.3276 21.6138 85.4515 21.6633 85.5877C23.2487 89.7618 23.546 94.3199 22.5056 98.7913L20.5486 107.189C20.3628 107.982 20.8582 108.787 21.6509 108.973C21.7624 108.997 21.8739 109.01 21.9853 109.01C22.6542 109.01 23.2735 108.552 23.4221 107.858L25.3791 99.4602C26.5558 94.419 26.2214 89.254 24.4254 84.5225C24.3635 84.3739 24.3139 84.2253 24.252 84.089H24.2768Z" fill="#EB5B00"/>
<path d="M96.7354 55.4897C93.7627 52.2074 90.0717 46.3983 89.3285 37.3069C88.9817 32.9965 87.7926 28.4756 85.91 24.2396C83.9158 19.7806 81.2404 15.7427 77.9457 12.2498C74.3785 8.47208 70.2539 5.51181 65.6835 3.43095C60.6671 1.16429 55.2172 0 49.4701 0C39.4002 0 30.445 2.03132 22.8771 6.03202C16.3621 9.47536 13.1665 13.2283 12.5967 13.9467C12.0889 14.5908 12.188 15.5198 12.832 16.0276C13.4761 16.5354 14.4051 16.4363 14.9129 15.7923C15.2225 15.3959 18.1457 11.8783 24.2644 8.64549C31.3988 4.86773 39.8832 2.96028 49.4701 2.96028C62.4012 2.96028 70.9228 9.11616 75.7905 14.2688C78.8623 17.5139 81.3519 21.2793 83.2098 25.441C84.9686 29.3798 86.0586 33.5539 86.3806 37.5422C87.1857 47.4635 91.2607 53.8671 94.543 57.4838C95.2243 58.2394 95.5463 59.2055 95.4472 60.2088C95.3481 61.212 94.8403 62.0791 94.0352 62.6736L88.1023 67.0335C87.7183 67.3184 87.4954 67.7519 87.4954 68.2226V84.1263C87.4954 85.9347 86.7027 87.6192 85.303 88.7711C83.9158 89.9106 82.095 90.3813 80.3238 90.0345L72.1118 88.4243C70.5636 88.127 68.9782 88.5234 67.7519 89.5266C66.5381 90.5299 65.8321 92.0162 65.8321 93.5893V107.524C65.8321 108.341 66.5009 109.01 67.3184 109.01C68.1359 109.01 68.8048 108.341 68.8048 107.524V93.5893C68.8048 92.8957 69.1144 92.2516 69.647 91.8181C70.1796 91.3845 70.8732 91.1988 71.5421 91.335L79.7541 92.9452C82.3923 93.4654 85.1049 92.7842 87.1857 91.0625C89.2666 89.3532 90.4556 86.8265 90.4556 84.1387V68.9905L95.7817 65.0765C97.2556 63.9989 98.1969 62.3268 98.3827 60.5184C98.5685 58.6977 97.9616 56.8645 96.7354 55.5021V55.4897Z" fill="#EB5B00"/>
</svg>
