<svg width="101" height="109" viewBox="0 0 101 109" fill="none" xmlns="http://www.w3.org/2000/svg">
<path d="M91.3384 12.8828C93.8254 12.8828 95.9968 13.9686 97.5496 15.5213C99.1024 17.0741 100.037 19.2456 100.037 21.5748C100.037 23.904 99.1025 26.0754 97.5496 27.6282C97.3919 27.6282 97.3919 27.7859 97.3919 27.7859C96.6155 28.5623 95.6814 29.0294 94.7534 29.4965C93.977 34.622 90.8714 40.8332 85.7459 47.5121C84.0354 49.6835 82.0217 52.1705 79.844 54.4997C81.7061 56.5196 83.4167 58.5395 85.1211 60.5532C89.4702 66.1457 92.418 71.4228 93.9708 76.0812C95.5236 80.8974 95.2143 85.0887 92.8851 88.0365C92.418 88.6552 91.951 89.1223 91.3323 89.5893C86.5161 93.3136 77.357 92.8527 66.4874 89.1223C66.0204 90.208 65.5533 91.4515 65.0923 92.5372C60.7432 102.63 54.532 109 47.5441 109C44.1292 109 41.0236 107.605 38.2273 104.96C35.5888 102.789 33.2596 99.5254 31.2397 95.4857C30.7726 95.6434 30.1539 95.6433 29.5291 95.6433C27.0421 95.6433 25.0285 94.7093 23.3179 93.1564C22.6992 92.5377 22.2321 91.7613 21.7651 90.9849C18.0409 91.919 14.6197 92.38 11.6719 92.2284C8.40851 92.0707 5.61843 91.1427 3.59855 89.5899C2.97985 89.1228 2.5128 88.6558 2.04575 88.0371C-0.283458 85.0892 -0.592777 80.8917 0.959995 76.0817C2.5128 71.4233 5.46064 66.1463 9.96749 60.5537C11.5203 58.5338 13.2309 56.514 15.093 54.5003C13.2309 52.4804 11.5203 50.4605 9.96749 48.4468C5.46685 42.8543 2.5128 37.5772 0.959995 32.9188C-0.592808 28.1026 -0.283458 23.9113 2.04575 20.9635C2.5128 20.3448 2.97985 19.8777 3.59855 19.4107C8.41472 15.6864 17.5738 16.1473 28.6018 19.8777C28.9111 18.792 29.3782 17.5485 29.8452 16.4628C34.3459 6.36959 40.5571 0 47.5441 0C54.5311 0 60.7429 6.36897 65.0923 16.4628C65.5593 17.5486 66.0264 18.792 66.4874 19.8777C73.3172 17.5485 79.3769 16.4628 84.1862 16.9299C84.4956 16.3112 84.8049 15.8441 85.272 15.5348C86.8248 13.982 88.9962 12.8963 91.3254 12.8963L91.3384 12.8828ZM63.5464 88.0353C58.4209 86.0154 52.9861 83.3769 47.551 80.1136C44.2876 81.9757 41.0304 83.6863 37.9248 85.2391V85.5545L38.0825 85.7122V88.5508H37.9248V89.3333H37.7671C37.7671 89.6427 37.7671 89.8004 37.6094 89.952C37.4517 90.7284 36.9907 91.3471 36.6753 91.9719C36.366 92.4389 35.8989 92.906 35.5896 93.2153C35.1225 93.6824 34.6555 93.9918 34.1945 94.3011C36.0566 97.8738 38.0765 100.822 40.2479 102.684C42.5771 104.855 44.9063 105.947 47.5448 105.947C53.1374 105.947 58.2567 100.355 62.1387 91.3532C62.6057 90.2675 63.0728 89.1818 63.5338 88.0899L63.5464 88.0353ZM31.4049 20.9558C36.5304 22.9757 41.9652 25.6142 47.551 28.8776C51.9 26.3906 56.2491 24.0614 60.2827 22.3571C61.3684 21.89 62.4541 21.423 63.5461 20.962C63.079 19.8762 62.612 18.7906 62.151 17.6986C58.269 8.69113 53.1435 3.10477 47.5571 3.10477C41.813 3.10477 36.6875 8.69734 32.8055 17.6986C32.3384 18.7844 31.8714 19.8701 31.4104 20.962L31.4049 20.9558ZM67.4284 22.818C69.5998 29.6478 71.0011 37.7273 71.6197 46.419C73.7911 48.4389 75.811 50.301 77.6731 52.3209C79.8446 49.9917 81.7129 47.8202 83.4173 45.6426C87.7664 39.8985 90.5626 34.4637 91.4906 30.2723H91.3329C89.0037 30.2723 86.8323 29.1866 85.2795 27.6338C83.7267 26.0811 82.7925 23.9096 82.7925 21.5804V21.1073C82.7925 20.7979 82.7925 20.3309 82.9502 19.8638C78.7589 19.7061 73.3241 20.7979 67.4222 22.8116L67.4284 22.818ZM71.7775 50.7684C71.9352 52.0118 71.9352 53.2554 71.9352 54.4926C71.9352 55.7361 71.7775 56.9796 71.7775 58.2169C73.1726 56.9734 74.416 55.7299 75.5017 54.4926C74.416 53.2492 73.1725 52.0057 71.7775 50.7684ZM71.6198 62.5722C71.0011 71.2704 69.5999 79.344 67.4284 86.1732C77.3639 89.5881 85.4441 90.213 89.4767 87.1073C89.786 86.798 90.2531 86.4886 90.4108 86.1732C92.1214 84.0018 92.2729 80.8962 91.0295 77.0142C89.6344 72.6651 86.8382 67.6974 82.6468 62.4203C81.094 60.5582 79.5412 58.6961 77.6791 56.6762C75.817 58.6961 73.7971 60.5582 71.6257 62.5781L71.6198 62.5722ZM33.4177 90.99C33.5754 90.6807 33.8848 90.523 34.0364 90.2136C34.3458 89.7466 34.6551 89.1279 34.8128 88.503V88.1876H34.9705V87.0837C34.9705 85.5309 34.3518 84.1358 33.4177 83.2017V83.044H33.26V82.8863H33.1023L32.9446 82.7286H32.7869V82.5709H32.6292V82.4132H32.4715L32.3138 82.2555H32.1561L31.9984 82.0977H31.8407L31.683 81.94H31.3676V81.7823H30.8945V81.6246H30.1059V81.4669H28.6866V81.6246H27.8981V81.7823H27.4249V81.94H27.1095V82.0977H26.7941V82.2555H26.4787V82.4132H26.321L26.1633 82.5709H26.0056V82.7286H25.8479V82.8863H25.6902V83.044H25.5325V83.2017C24.4467 84.1358 23.8219 85.5309 23.8219 87.0837V87.8722C24.1313 89.1157 24.5983 90.2014 25.5325 90.9778C26.4666 91.9119 27.8617 92.5306 29.4145 92.5306C30.9673 92.5306 32.2108 91.9119 33.2965 90.9778L33.4177 90.99ZM25.6537 79.344C24.8773 75.7713 24.2586 71.8893 23.7916 68.0073C23.6339 66.1452 23.4822 64.4346 23.3245 62.5725C21.1531 60.5526 19.1332 58.6905 17.2711 56.6706C15.409 58.6905 13.8562 60.5526 12.3034 62.4147C8.11205 67.6918 5.31576 72.6657 3.92072 77.0086C2.83497 80.8906 2.83497 83.9962 4.53942 86.1676C4.84877 86.477 5.15812 86.7863 5.47353 87.1017C7.02633 88.3452 9.19777 88.9639 11.8425 89.1216C14.481 89.2793 17.5866 88.8123 21.0015 88.0359H20.8438V87.0896C20.8438 84.6027 21.778 82.589 23.3308 80.8784H23.4885L24.1193 80.2476H24.277V80.0899H24.4348L24.5925 79.9322H24.7502L25.0656 79.6168H25.2233L25.381 79.4591H25.5387V79.3014H25.6964L25.6537 79.344ZM23.1667 58.2228V54.4985V50.7743C21.7716 52.0178 20.5282 53.2613 19.4425 54.4985C20.5283 55.742 21.7717 56.9855 23.1667 58.2228ZM23.3244 46.419C23.9431 37.7208 25.3443 29.6472 27.5158 22.818C17.5803 19.403 9.50016 18.7782 5.46753 21.8839C5.15818 22.1932 4.84883 22.5026 4.53343 22.818C2.82286 24.9894 2.82286 28.095 3.91473 31.977C5.30983 36.3261 8.10605 41.2938 12.2974 46.5709C13.8502 48.433 15.403 50.2951 17.2651 52.315C19.1272 50.2951 21.1471 48.433 23.3186 46.4131L23.3244 46.419ZM30.4698 23.9034C28.6077 29.6475 27.3642 36.3258 26.7456 43.4718C27.8313 42.5377 29.0748 41.6097 30.3183 40.5239C34.9767 36.9513 39.7928 33.5363 44.4513 30.74C39.6351 27.9438 34.9767 25.7723 30.476 23.9102L30.4698 23.9034ZM26.4301 47.9718C26.2724 49.9917 26.2723 52.3209 26.2723 54.4923C26.2723 56.6638 26.2724 58.993 26.4301 61.0129C28.2922 62.7234 30.1543 64.4278 32.3319 65.9806C37.2997 70.0203 42.4252 73.4353 47.5507 76.5409C48.0177 76.2315 48.6364 75.9222 49.1035 75.4551C53.6041 72.6588 58.2625 69.5532 62.6116 65.9805C64.783 64.4277 66.6514 62.7172 68.5135 61.0128C68.6712 58.9929 68.8228 56.6637 68.8228 54.4923C68.8228 52.3209 68.6651 49.9917 68.5135 47.9718C66.6514 46.2612 64.7892 44.5569 62.6116 43.004C57.6439 38.9643 52.5184 35.5494 47.5507 32.4438C42.4252 35.5494 37.2997 38.9643 32.3319 43.004C30.1605 44.5569 28.2922 46.2674 26.4301 47.9718ZM26.7394 65.3616C26.7394 66.138 26.8971 66.9144 26.8971 67.6908C27.3642 71.4151 27.9829 75.1455 28.7592 78.4027H30.3363V78.5604H31.4402V78.7181H31.9133L32.071 78.8758H32.3864L32.5441 79.0335H32.8595V79.1912H33.1749L33.3326 79.3489H33.4903L33.6481 79.5066H33.8058V79.6643H34.1212V79.822H34.2789V79.9797H34.5943V80.1374H34.752V80.2951H35.0674V80.4528H35.2251V80.6105H35.3828V80.7682H35.5405V80.9259H35.6982V81.0836H35.8559V81.2413H36.0136V81.399H36.1713V81.5567H36.329V81.8721H36.4867V82.0298H36.6444V82.1875H36.8021V82.3453C39.2891 81.2595 41.9276 79.8583 44.5661 78.3055C39.9077 75.5092 35.0915 72.0943 30.4331 68.5216C29.1897 67.4358 27.9462 66.5017 26.8604 65.416L26.7394 65.3616ZM64.474 85.0807C66.3362 79.3365 67.5797 72.6582 68.1983 65.5123C67.1125 66.4464 65.8691 67.3744 64.6256 68.4601C59.9672 72.0328 55.3088 75.2899 50.8082 78.0862L50.4988 78.2439C55.315 81.0402 60.1249 83.2116 64.474 85.0738L64.474 85.0807ZM68.1983 43.6224C67.5796 36.3255 66.3362 29.6472 64.474 23.9034C63.5399 24.3704 62.6119 24.6798 61.5262 25.1468C57.9535 26.6996 54.2293 28.5617 50.4988 30.7394C55.1572 33.5357 59.9734 36.9506 64.6318 40.5233C65.8753 41.609 67.1188 42.5432 68.2045 43.6289L68.1983 43.6224ZM95.2139 17.6922C94.2798 16.6064 92.8847 15.9816 91.3319 15.9816C89.9368 15.9816 88.5356 16.6003 87.4499 17.6922C86.9829 18.1592 86.6735 18.6263 86.3642 19.0873V19.245C86.0548 20.0214 85.8971 20.6401 85.8971 21.4164V21.5741C85.8971 23.1269 86.5158 24.5219 87.4499 25.4561C88.5357 26.5419 89.9369 27.1667 91.3319 27.1667H91.6473C93.0424 27.009 94.2859 26.3903 95.22 25.6139V25.4562C96.3058 24.5221 96.9306 23.127 96.9306 21.5742C96.9306 20.0214 96.3119 18.6263 95.3778 17.6922H95.2139Z" fill="#EB5B00"/>
</svg>
